<svg width="28" height="28" viewBox="0 0 28 28" fill="#fff" xmlns="http://www.w3.org/2000/svg">
<g clip-path="url(#clip0_171_1081)">
<path d="M14 27.4401C21.4102 27.4401 27.44 21.4103 27.44 14.0001C27.44 6.58986 21.4102 0.560059 14 0.560059C6.5898 0.560059 0.559998 6.58986 0.559998 14.0001C0.559998 21.4103 6.5898 27.4401 14 27.4401ZM14 2.24006C20.4848 2.24006 25.76 7.51526 25.76 14.0001C25.76 20.4849 20.4848 25.7601 14 25.7601C7.5152 25.7601 2.24 20.4849 2.24 14.0001C2.24 7.51526 7.5152 2.24006 14 2.24006Z" fill="currentColor"/>
<path d="M14 24.1501V3.8501C19.5972 3.8501 24.15 8.4029 24.15 14.0001C24.15 19.5973 19.5972 24.1501 14 24.1501Z" fill="currentColor"/>
</g>
<defs>
<clipPath id="clip0_171_1081">
<rect width="28" height="28" fill="black"/>
</clipPath>
</defs>
</svg>
