<svg width="40" height="40" viewBox="0 0 40 40" fill="none" xmlns="http://www.w3.org/2000/svg">
<path d="M20 40C31.0457 40 40 31.0457 40 20C40 8.95431 31.0457 0 20 0C8.95431 0 0 8.95431 0 20C0 31.0457 8.95431 40 20 40Z" fill="white"/>
<path d="M29.454 26.37C29.7598 26.6748 29.9682 27.0635 30.0528 27.4868C30.1374 27.9102 30.0943 28.3491 29.9292 28.748C29.764 29.1469 29.4841 29.4877 29.125 29.7274C28.7659 29.967 28.3437 30.0946 27.912 30.094C27.3347 30.0932 26.7809 29.8655 26.37 29.46L20 23.09L13.63 29.46C13.2202 29.869 12.6648 30.0984 12.0859 30.0978C11.507 30.0973 10.952 29.8668 10.543 29.457C10.134 29.0472 9.9046 28.4918 9.90516 27.9129C9.90572 27.334 10.1362 26.779 10.546 26.37L16.916 20L10.546 13.628C10.137 13.219 9.90728 12.6644 9.90728 12.086C9.90728 11.5076 10.137 10.953 10.546 10.544C10.955 10.135 11.5096 9.90528 12.088 9.90528C12.6664 9.90528 13.221 10.135 13.63 10.544L20 16.916L26.37 10.544C26.779 10.135 27.3336 9.90528 27.912 9.90528C28.4904 9.90528 29.045 10.135 29.454 10.544C29.863 10.953 30.0927 11.5076 30.0927 12.086C30.0927 12.6644 29.863 13.219 29.454 13.628L23.084 20L29.454 26.37Z" fill="black"/>
</svg>
