<svg width="80" height="81" viewBox="0 0 80 81" fill="none" xmlns="http://www.w3.org/2000/svg">
<path d="M70.3961 11.9121H9.6041C5.1841 11.9121 1.6001 15.4961 1.6001 19.9161V60.6961C1.6001 65.1161 5.1841 68.7001 9.6041 68.7001H70.3961C74.8161 68.7001 78.4001 65.1161 78.4001 60.6961V19.9161C78.4001 15.4961 74.8161 11.9121 70.3961 11.9121ZM73.6481 55.0721C69.5361 56.5241 66.2801 59.7881 64.8321 63.9001H15.2601C13.8081 59.7721 10.5281 56.4961 6.4001 55.0521V25.4961C10.5361 24.0481 13.8201 20.7641 15.2681 16.6241H64.8241C66.2641 20.7481 69.5281 24.0201 73.6481 25.4761V55.0721Z" fill="#2175C8"/>
<path d="M47.8601 45.9431C47.8601 49.5231 45.5001 52.5631 42.2521 53.5831V55.2271C42.2521 56.5511 41.1761 57.6271 39.8521 57.6271C38.5281 57.6271 37.4521 56.5511 37.4521 55.2271V53.5831C34.2041 52.5631 31.8441 49.5231 31.8441 45.9431C31.8441 44.6191 32.9201 43.5431 34.2441 43.5431C35.5681 43.5431 36.6441 44.6191 36.6441 45.9431C36.6441 47.7111 38.0841 49.1511 39.8521 49.1511C41.6201 49.1511 43.0601 47.7111 43.0601 45.9431C43.0601 44.1751 41.6201 42.7351 39.8521 42.7351H39.8281C35.4121 42.7351 31.8201 39.1431 31.8201 34.7271C31.8201 31.1391 34.1921 28.0951 37.4521 27.0831V25.4391C37.4521 24.1111 38.5281 23.0391 39.8521 23.0391C41.1761 23.0391 42.2521 24.1111 42.2521 25.4391V27.0991C45.4881 28.1271 47.8361 31.1591 47.8361 34.7271C47.8361 36.0551 46.7601 37.1271 45.4361 37.1271C44.1081 37.1271 43.0361 36.0551 43.0361 34.7271C43.0361 32.9671 41.6081 31.5351 39.8521 31.5231H39.8281C38.0601 31.5231 36.6201 32.9591 36.6201 34.7271C36.6201 36.4991 38.0601 37.9351 39.8281 37.9351H39.8521C44.2681 37.9351 47.8601 41.5271 47.8601 45.9431Z" fill="#2175C8"/>
</svg>
