<svg width="36" height="26" viewBox="0 0 36 26" fill="none" xmlns="http://www.w3.org/2000/svg">
<path d="M35.5725 7.99945V2.34695C35.5725 1.29195 34.7175 0.439453 33.6625 0.439453H12.895V1.31445C12.895 2.00445 12.335 2.56445 11.645 2.56445C10.955 2.56445 10.395 2.00445 10.395 1.31445V0.439453H2.71753C1.33503 0.439453 0.217529 1.55695 0.217529 2.93945V7.99945C2.97753 7.99945 5.21753 10.237 5.21753 12.9995C5.21753 15.762 2.97753 17.9995 0.217529 17.9995V23.5295C0.217529 24.5845 1.07253 25.4395 2.12503 25.4395H10.395V24.5645C10.395 23.872 10.955 23.3145 11.645 23.3145C12.335 23.3145 12.895 23.872 12.895 24.5645V25.4395H33.6625C34.7175 25.4395 35.5725 24.5845 35.5725 23.5295V17.9995C32.81 17.9995 30.5725 15.762 30.5725 12.9995C30.5725 10.237 32.81 7.99945 35.5725 7.99945ZM12.895 19.9595C12.895 20.6495 12.335 21.2095 11.645 21.2095C10.955 21.2095 10.395 20.6495 10.395 19.9595V18.347C10.395 17.657 10.955 17.097 11.645 17.097C12.335 17.097 12.895 17.657 12.895 18.347V19.9595ZM12.895 13.7445C12.895 14.4345 12.335 14.9945 11.645 14.9945C10.955 14.9945 10.395 14.4345 10.395 13.7445V12.132C10.395 11.442 10.955 10.882 11.645 10.882C12.335 10.882 12.895 11.442 12.895 12.132V13.7445ZM12.895 7.52945C12.895 8.21945 12.335 8.77945 11.645 8.77945C10.955 8.77945 10.395 8.21945 10.395 7.52945V5.91695C10.395 5.22695 10.955 4.66695 11.645 4.66695C12.335 4.66695 12.895 5.22695 12.895 5.91695V7.52945Z" fill="black"/>
</svg>
