<svg width="67" height="80" viewBox="0 0 67 80" fill="none" xmlns="http://www.w3.org/2000/svg">
    <g clip-path="url(#clip0_20_147)">
        <path d="M60.0221 1.96291V45.3024C56.2911 42.7996 51.8267 41.6244 47.3471 41.966C42.8674 42.3076 38.6328 44.146 35.3245 47.1856C32.0161 50.2251 29.8263 54.2892 29.1073 58.7239C28.3883 63.1587 29.1818 67.7064 31.3603 71.6356H1.96291C1.44231 71.6356 0.943039 71.4288 0.574923 71.0607C0.206806 70.6925 0 70.1933 0 69.6727V1.96291C0 1.44231 0.206806 0.943039 0.574923 0.574923C0.943039 0.206806 1.44231 0 1.96291 0H58.0592C58.3169 0 58.5722 0.0507727 58.8103 0.149418C59.0485 0.248063 59.2649 0.39265 59.4471 0.574923C59.6294 0.757195 59.774 0.973583 59.8727 1.21173C59.9713 1.44988 60.0221 1.70513 60.0221 1.96291Z" fill="currentColor" />
        <path d="M48.8794 79.1593C45.4709 79.1593 42.1391 78.1486 39.3051 76.255C36.4711 74.3614 34.2623 71.6699 32.9579 68.521C31.6536 65.372 31.3123 61.907 31.9773 58.5641C32.6422 55.2212 34.2835 52.1505 36.6936 49.7404C39.1037 47.3303 42.1744 45.689 45.5173 45.024C48.8602 44.3591 52.3253 44.7003 55.4742 46.0047C58.6232 47.309 61.3146 49.5178 63.2083 52.3518C65.1019 55.1858 66.1126 58.5177 66.1126 61.9261C66.1126 66.4966 64.2969 70.88 61.0651 74.1118C57.8332 77.3437 53.4499 79.1593 48.8794 79.1593ZM48.8794 48.6397C46.2487 48.6389 43.6769 49.4183 41.4892 50.8792C39.3016 52.3402 37.5964 54.4172 36.5893 56.8475C35.5822 59.2777 35.3185 61.952 35.8315 64.5322C36.3445 67.1123 37.6112 69.4824 39.4713 71.3425C41.3315 73.2027 43.7015 74.4694 46.2817 74.9824C48.8618 75.4954 51.5362 75.2317 53.9664 74.2246C56.3966 73.2175 58.4736 71.5123 59.9346 69.3246C61.3956 67.137 62.175 64.5652 62.1742 61.9345C62.1697 58.4099 60.7676 55.0309 58.2753 52.5386C55.783 50.0463 52.404 48.6442 48.8794 48.6397Z" fill="currentColor" />
        <path d="M62.1741 61.9345C62.1741 64.564 61.3944 67.1344 59.9335 69.3207C58.4727 71.507 56.3963 73.2111 53.967 74.2173C51.5377 75.2236 48.8645 75.4868 46.2856 74.9739C43.7067 74.4609 41.3377 73.1947 39.4784 71.3354C37.6191 69.476 36.3529 67.1071 35.8399 64.5282C35.327 61.9493 35.5902 59.2761 36.5965 56.8468C37.6027 54.4175 39.3068 52.3411 41.4931 50.8803C43.6794 49.4194 46.2498 48.6397 48.8793 48.6397C52.4036 48.6453 55.7819 50.0478 58.274 52.5398C60.766 55.0319 62.1685 58.4102 62.1741 61.9345Z" fill="white" />
        <path d="M46.0464 16.5565H13.9716C13.451 16.5565 12.9517 16.3497 12.5836 15.9816C12.2155 15.6134 12.0087 15.1142 12.0087 14.5936C12.0087 14.073 12.2155 13.5737 12.5836 13.2056C12.9517 12.8375 13.451 12.6307 13.9716 12.6307H46.0464C46.567 12.6307 47.0663 12.8375 47.4344 13.2056C47.8025 13.5737 48.0093 14.073 48.0093 14.5936C48.0093 15.1142 47.8025 15.6134 47.4344 15.9816C47.0663 16.3497 46.567 16.5565 46.0464 16.5565Z" fill="white" />
        <path d="M46.0464 27.7749H13.9716C13.451 27.7749 12.9517 27.5681 12.5836 27.2C12.2155 26.8319 12.0087 26.3326 12.0087 25.812C12.0087 25.2914 12.2155 24.7922 12.5836 24.424C12.9517 24.0559 13.451 23.8491 13.9716 23.8491H46.0464C46.567 23.8491 47.0663 24.0559 47.4344 24.424C47.8025 24.7922 48.0093 25.2914 48.0093 25.812C48.0093 26.3326 47.8025 26.8319 47.4344 27.2C47.0663 27.5681 46.567 27.7749 46.0464 27.7749Z" fill="white" />
        <path d="M32.2388 38.9933H13.9716C13.451 38.9933 12.9517 38.7865 12.5836 38.4184C12.2155 38.0503 12.0087 37.551 12.0087 37.0304C12.0087 36.5098 12.2155 36.0105 12.5836 35.6424C12.9517 35.2743 13.451 35.0675 13.9716 35.0675H32.2388C32.7594 35.0675 33.2587 35.2743 33.6268 35.6424C33.9949 36.0105 34.2017 36.5098 34.2017 37.0304C34.2017 37.551 33.9949 38.0503 33.6268 38.4184C33.2587 38.7865 32.7594 38.9933 32.2388 38.9933Z" fill="white" />
        <path d="M48.8793 63.2502C48.3587 63.2502 47.8594 63.0434 47.4913 62.6752C47.1232 62.3071 46.9164 61.8078 46.9164 61.2873V55.159C46.9164 54.6384 47.1232 54.1391 47.4913 53.771C47.8594 53.4029 48.3587 53.196 48.8793 53.196C49.3999 53.196 49.8992 53.4029 50.2673 53.771C50.6354 54.1391 50.8422 54.6384 50.8422 55.159V61.2873C50.8422 61.545 50.7914 61.8003 50.6928 62.0384C50.5941 62.2766 50.4495 62.493 50.2673 62.6752C50.085 62.8575 49.8686 63.0021 49.6305 63.1007C49.3923 63.1994 49.1371 63.2502 48.8793 63.2502Z" fill="currentColor" />
        <path d="M53.1456 68.4033C52.8565 68.4044 52.5708 68.3413 52.3091 68.2185C52.0474 68.0956 51.8163 67.9161 51.6325 67.6929L47.3662 62.5356C47.0346 62.1343 46.8759 61.6177 46.9252 61.0994C46.9745 60.5811 47.2276 60.1036 47.6289 59.772C48.0302 59.4403 48.5469 59.2817 49.0651 59.331C49.5834 59.3802 50.0609 59.6334 50.3925 60.0347L54.6588 65.192C54.8954 65.4791 55.0456 65.8276 55.0917 66.1967C55.1379 66.5659 55.0782 66.9405 54.9197 67.2771C54.7611 67.6136 54.5101 67.8982 54.196 68.0976C53.882 68.297 53.5177 68.403 53.1456 68.4033Z" fill="currentColor" />
    </g>
    <defs>
        <clipPath id="clip0_20_147">
            <rect width="66.9448" height="80" fill="white" />
        </clipPath>
    </defs>
</svg>