<svg width="82" height="81" viewBox="0 0 82 81" fill="none" xmlns="http://www.w3.org/2000/svg">
<path d="M40.9939 0.500015C31.3513 0.49469 22.0314 3.97289 14.7499 10.2943C7.46841 16.6156 2.7156 25.3546 1.36645 34.9024C0.0172981 44.4501 2.16264 54.1639 7.40752 62.2553C12.6524 70.3467 20.6437 76.2711 29.9102 78.9378V54.9944C26.5663 54.0065 24.0944 50.5746 24.0944 46.4947V28.4992C24.1623 28.0225 24.4 27.5863 24.7637 27.2707C25.1274 26.9551 25.5928 26.7814 26.0744 26.7814C26.5559 26.7814 27.0213 26.9551 27.385 27.2707C27.7487 27.5863 27.9864 28.0225 28.0543 28.4992V41.3948C28.0629 41.6273 28.1557 41.8488 28.3154 42.018C28.475 42.1872 28.6907 42.2927 28.9223 42.3148C29.0525 42.3164 29.1817 42.292 29.3023 42.2429C29.4228 42.1938 29.5324 42.1211 29.6245 42.029C29.7165 41.937 29.7892 41.8274 29.8383 41.7068C29.8874 41.5862 29.9119 41.457 29.9102 41.3268V28.4752C29.9782 27.9985 30.2158 27.5623 30.5796 27.2467C30.9433 26.9311 31.4087 26.7574 31.8902 26.7574C32.3717 26.7574 32.8371 26.9311 33.2008 27.2467C33.5646 27.5623 33.8022 27.9985 33.8701 28.4752V41.4868C33.8701 41.7329 33.9679 41.969 34.1419 42.143C34.316 42.317 34.552 42.4148 34.7981 42.4148C35.0442 42.4148 35.2803 42.317 35.4543 42.143C35.6283 41.969 35.7261 41.7329 35.7261 41.4868C35.7301 41.4349 35.7301 41.3828 35.7261 41.3308V28.4752C35.794 27.9985 36.0317 27.5623 36.3954 27.2467C36.7591 26.9311 37.2245 26.7574 37.706 26.7574C38.1876 26.7574 38.6529 26.9311 39.0167 27.2467C39.3804 27.5623 39.618 27.9985 39.686 28.4752V46.4987C39.686 50.5786 37.214 54.0105 33.8701 54.9984V79.8657C38.8768 80.7646 44.0083 80.7076 48.9937 79.6977V53.3385C45.1138 51.8785 42.2299 46.4387 42.2299 39.9549C42.2299 32.3551 46.1978 26.1753 51.0936 26.1753C55.9895 26.1753 59.9614 32.3471 59.9614 39.9549C59.9614 46.2587 57.2415 51.5545 53.5176 53.2105V78.4978C62.5569 75.5267 70.241 69.4305 75.1902 61.3039C80.1394 53.1772 82.0294 43.5524 80.521 34.1577C79.0125 24.7629 74.2044 16.2136 66.9599 10.0449C59.7153 3.87608 50.509 0.491915 40.9939 0.500015Z" fill="currentColor"/>
<path d="M39.686 28.4752V46.4987C39.686 50.5786 37.214 54.0105 33.8701 54.9984V79.8657C32.5351 79.6263 31.2134 79.3179 29.9102 78.9417V54.9944C26.5663 54.0065 24.0944 50.5746 24.0944 46.4947V28.4992C24.1623 28.0225 24.4 27.5863 24.7637 27.2707C25.1274 26.9551 25.5928 26.7814 26.0744 26.7814C26.5559 26.7814 27.0213 26.9551 27.385 27.2707C27.7487 27.5863 27.9864 28.0225 28.0543 28.4992V41.2308C28.0503 41.2854 28.0503 41.3402 28.0543 41.3948C28.0629 41.6273 28.1557 41.8488 28.3154 42.018C28.475 42.1872 28.6907 42.2927 28.9223 42.3148C29.0525 42.3164 29.1817 42.292 29.3023 42.2429C29.4228 42.1938 29.5324 42.1211 29.6245 42.029C29.7165 41.937 29.7892 41.8274 29.8383 41.7068C29.8874 41.5862 29.9119 41.457 29.9102 41.3268V28.4752C29.9782 27.9985 30.2158 27.5623 30.5796 27.2467C30.9433 26.9311 31.4087 26.7574 31.8902 26.7574C32.3717 26.7574 32.8371 26.9311 33.2008 27.2467C33.5646 27.5623 33.8022 27.9985 33.8701 28.4752V41.2988C33.8601 41.3598 33.8601 41.4219 33.8701 41.4828C33.8701 41.729 33.9679 41.965 34.1419 42.139C34.316 42.313 34.552 42.4108 34.7981 42.4108C35.0442 42.4108 35.2803 42.313 35.4543 42.139C35.6283 41.965 35.7261 41.729 35.7261 41.4828C35.7301 41.4309 35.7301 41.3788 35.7261 41.3268V28.4752C35.794 27.9985 36.0317 27.5623 36.3954 27.2467C36.7591 26.9311 37.2245 26.7574 37.706 26.7574C38.1876 26.7574 38.6529 26.9311 39.0167 27.2467C39.3804 27.5623 39.618 27.9985 39.686 28.4752Z" fill="white"/>
<path d="M59.9574 39.9549C59.9574 46.2587 57.2375 51.5545 53.5136 53.2105V78.4978C52.0336 78.9921 50.524 79.3929 48.9937 79.6977V53.3385C45.1138 51.8785 42.2299 46.4387 42.2299 39.9549C42.2299 32.3551 46.1978 26.1753 51.0936 26.1753C55.9895 26.1753 59.9574 32.3471 59.9574 39.9549Z" fill="white"/>
</svg>

