<svg width="32" height="32" viewBox="0 0 32 32" fill="none" xmlns="http://www.w3.org/2000/svg">
<path d="M31.54 16.019C31.542 16.025 31.542 16.031 31.542 16.037C31.542 16.809 30.916 17.437 30.142 17.437H15.764L18.81 20.483C19.358 21.029 19.358 21.917 18.81 22.463C18.538 22.737 18.178 22.873 17.82 22.873C17.462 22.873 17.104 22.737 16.83 22.463L11.394 17.027C11.356 16.989 11.32 16.949 11.29 16.907C11.234 16.841 11.188 16.771 11.15 16.697C11.12 16.641 11.094 16.585 11.074 16.525C11.062 16.499 11.054 16.471 11.044 16.443C11.026 16.381 11.01 16.317 11.002 16.251C10.99 16.181 10.984 16.111 10.984 16.037C10.984 15.989 10.986 15.941 10.992 15.893C10.994 15.873 10.996 15.851 11 15.831C11.01 15.763 11.024 15.695 11.044 15.629C11.058 15.581 11.076 15.537 11.094 15.491C11.13 15.411 11.17 15.333 11.22 15.259C11.272 15.181 11.33 15.111 11.394 15.047L16.83 9.61103C17.378 9.06303 18.264 9.06303 18.81 9.61103C19.358 10.157 19.358 11.043 18.81 11.589L15.764 14.637H28.668C27.986 8.24903 22.564 3.25703 16 3.25703C8.97401 3.25703 3.25801 8.97503 3.25801 16.001C3.25801 23.027 8.97401 28.743 16 28.743C16.772 28.743 17.4 29.369 17.4 30.143C17.4 30.915 16.772 31.543 16 31.543C7.43001 31.543 0.458008 24.571 0.458008 16.001C0.458008 7.43103 7.43001 0.457031 16 0.457031C24.57 0.457031 31.542 7.43103 31.542 16.001C31.542 16.007 31.542 16.013 31.54 16.019Z" fill="currentColor"/>
</svg>
