<svg width="68" height="81" viewBox="0 0 68 81" fill="none" xmlns="http://www.w3.org/2000/svg">
<path d="M67.1489 78.4159C67.1623 78.6841 67.121 78.9523 67.0277 79.2041C66.9344 79.456 66.791 79.6863 66.6062 79.8811C66.4213 80.0759 66.1989 80.2312 65.9523 80.3376C65.7057 80.444 65.4401 80.4992 65.1715 80.5H2.83304C2.5634 80.4998 2.29663 80.4448 2.04897 80.3381C1.80132 80.2315 1.57798 80.0755 1.39257 79.8797C1.20716 79.684 1.06357 79.4525 0.970544 79.1994C0.87752 78.9463 0.837015 78.6769 0.8515 78.4077L3.77253 23.5687C3.79985 23.0608 4.02105 22.5827 4.39051 22.2331C4.75997 21.8835 5.24951 21.689 5.75817 21.6897H15.6782V30.6415C15.6605 31.2111 15.7574 31.7784 15.9631 32.3097C16.1688 32.8411 16.4792 33.3257 16.8758 33.7349C17.2725 34.144 17.7472 34.4693 18.2719 34.6914C18.7967 34.9135 19.3607 35.028 19.9305 35.028C20.5003 35.028 21.0643 34.9135 21.589 34.6914C22.1137 34.4693 22.5885 34.144 22.9851 33.7349C23.3817 33.3257 23.6921 32.8411 23.8978 32.3097C24.1036 31.7784 24.2005 31.2111 24.1828 30.6415V21.6897H44.0228V30.6415C44.0051 31.2111 44.102 31.7784 44.3077 32.3097C44.5135 32.8411 44.8238 33.3257 45.2205 33.7349C45.6171 34.144 46.0918 34.4693 46.6166 34.6914C47.1413 34.9135 47.7053 35.028 48.2751 35.028C48.8449 35.028 49.4089 34.9135 49.9336 34.6914C50.4584 34.4693 50.9331 34.144 51.3297 33.7349C51.7263 33.3257 52.0367 32.8411 52.2425 32.3097C52.4482 31.7784 52.5451 31.2111 52.5274 30.6415V21.6897H62.4638C62.9727 21.6902 63.4619 21.8865 63.83 22.2378C64.1981 22.5891 64.417 23.0686 64.4412 23.5769L67.1489 78.4159Z" fill="currentColor"/>
<path d="M50.2587 16.6559V30.6415C50.2709 30.9096 50.2286 31.1774 50.1344 31.4287C50.0402 31.68 49.8961 31.9095 49.7107 32.1036C49.5253 32.2976 49.3025 32.452 49.0558 32.5575C48.809 32.663 48.5434 32.7174 48.2751 32.7174C48.0067 32.7174 47.7412 32.663 47.4944 32.5575C47.2477 32.452 47.0249 32.2976 46.8395 32.1036C46.6541 31.9095 46.5099 31.68 46.4158 31.4287C46.3216 31.1774 46.2793 30.9096 46.2915 30.6415V16.6559C46.3212 15.0367 46.028 13.4278 45.4289 11.9233C44.8298 10.4187 43.9368 9.04858 42.8023 7.89299C41.6677 6.7374 40.3142 5.81949 38.8209 5.1929C37.3275 4.5663 35.7243 4.24357 34.1048 4.24357C32.4854 4.24357 30.8821 4.5663 29.3888 5.1929C27.8955 5.81949 26.542 6.7374 25.4074 7.89299C24.2728 9.04858 23.3799 10.4187 22.7808 11.9233C22.1817 13.4278 21.8885 15.0367 21.9182 16.6559V30.6415C21.9182 31.1682 21.709 31.6732 21.3366 32.0456C20.9642 32.418 20.4592 32.6272 19.9325 32.6272C19.4059 32.6272 18.9008 32.418 18.5285 32.0456C18.1561 31.6732 17.9469 31.1682 17.9469 30.6415V16.6559C17.9469 12.3711 19.649 8.26177 22.6788 5.23195C25.7087 2.20213 29.818 0.5 34.1028 0.5C38.3876 0.5 42.4969 2.20213 45.5267 5.23195C48.5565 8.26177 50.2587 12.3711 50.2587 16.6559Z" fill="currentColor"/>
<path d="M50.2587 16.6559V30.6415C50.2709 30.9096 50.2286 31.1774 50.1344 31.4287C50.0402 31.68 49.8961 31.9095 49.7107 32.1036C49.5253 32.2976 49.3025 32.452 49.0558 32.5575C48.809 32.663 48.5434 32.7174 48.2751 32.7174C48.0067 32.7174 47.7412 32.663 47.4944 32.5575C47.2477 32.452 47.0249 32.2976 46.8395 32.1036C46.6541 31.9095 46.5099 31.68 46.4158 31.4287C46.3216 31.1774 46.2793 30.9096 46.2915 30.6415V16.6559C46.3212 15.0367 46.028 13.4278 45.4289 11.9233C44.8298 10.4187 43.9368 9.04858 42.8023 7.89299C41.6677 6.7374 40.3142 5.81949 38.8209 5.1929C37.3275 4.5663 35.7243 4.24357 34.1048 4.24357C32.4854 4.24357 30.8821 4.5663 29.3888 5.1929C27.8955 5.81949 26.542 6.7374 25.4074 7.89299C24.2728 9.04858 23.3799 10.4187 22.7808 11.9233C22.1817 13.4278 21.8885 15.0367 21.9182 16.6559V30.6415C21.9182 31.1682 21.709 31.6732 21.3366 32.0456C20.9642 32.418 20.4592 32.6272 19.9325 32.6272C19.4059 32.6272 18.9008 32.418 18.5285 32.0456C18.1561 31.6732 17.9469 31.1682 17.9469 30.6415V16.6559C17.9469 12.3711 19.649 8.26177 22.6788 5.23195C25.7087 2.20213 29.818 0.5 34.1028 0.5C38.3876 0.5 42.4969 2.20213 45.5267 5.23195C48.5565 8.26177 50.2587 12.3711 50.2587 16.6559Z" fill="currentColor"/>
</svg>
