<svg width="80" height="81" viewBox="0 0 80 81" fill="none" xmlns="http://www.w3.org/2000/svg">
<path d="M70.3961 11.9121H9.6041C5.1841 11.9121 1.6001 15.4961 1.6001 19.9161V60.6961C1.6001 65.1161 5.1841 68.7001 9.6041 68.7001H70.3961C74.8161 68.7001 78.4001 65.1161 78.4001 60.6961V19.9161C78.4001 15.4961 74.8161 11.9121 70.3961 11.9121ZM73.6001 60.6961C73.6001 62.4641 72.1641 63.9001 70.3961 63.9001H9.6041C7.8361 63.9001 6.4001 62.4641 6.4001 60.6961V35.3841H73.6001V60.6961ZM73.6001 23.8121H6.4001V19.9161C6.4001 18.1481 7.8361 16.7121 9.6041 16.7121H70.3961C72.1641 16.7121 73.6001 18.1481 73.6001 19.9161V23.8121Z" fill="#2175C8"/>
<path d="M29.5559 48.9238H9.55591V53.7238H29.5559V48.9238Z" fill="#2175C8"/>
<path d="M47.5559 48.9238H33.5559V53.7238H47.5559V48.9238Z" fill="#2175C8"/>
</svg>
