<svg width="38" height="38" viewBox="0 0 38 38" fill="none" xmlns="http://www.w3.org/2000/svg">
<path d="M19 0.607422C8.85754 0.607422 0.607544 8.85742 0.607544 18.9999C0.607544 29.1424 8.85754 37.3924 19 37.3924C29.1425 37.3924 37.3925 29.1424 37.3925 18.9999C37.3925 8.85742 29.1425 0.607422 19 0.607422ZM17.56 17.0449C17.95 17.3674 18.455 17.5599 19 17.5599C19.4975 17.5599 19.9825 17.6324 20.4375 17.7649C22.5825 18.3899 24.155 20.3724 24.155 22.7149C24.155 25.0574 22.5825 27.0399 20.4375 27.6599V28.5899C20.4375 29.3849 19.795 30.0274 19 30.0274C18.205 30.0274 17.56 29.3849 17.56 28.5899V27.6599C15.4175 27.0399 13.845 25.0574 13.845 22.7149C13.845 21.9199 14.49 21.2749 15.285 21.2749C16.0775 21.2749 16.7225 21.9199 16.7225 22.7149C16.7225 23.4249 17.05 24.0599 17.56 24.4749C17.95 24.7974 18.455 24.9899 19 24.9899C19.5425 24.9899 20.045 24.7974 20.4375 24.4774C20.95 24.0599 21.2775 23.4274 21.2775 22.7149C21.2775 22.0024 20.95 21.3674 20.4375 20.9524C20.045 20.6299 19.5425 20.4374 19 20.4374C18.5 20.4374 18.015 20.3649 17.56 20.2299C15.4175 19.6099 13.845 17.6274 13.845 15.2849C13.845 12.9424 15.4175 10.9574 17.56 10.3374V9.40742C17.56 8.61242 18.205 7.96742 19 7.96742C19.795 7.96742 20.4375 8.61242 20.4375 9.40742V10.3374C22.5825 10.9574 24.155 12.9424 24.155 15.2849C24.155 16.0774 23.51 16.7224 22.715 16.7224C21.92 16.7224 21.2775 16.0774 21.2775 15.2849C21.2775 14.5724 20.95 13.9399 20.4375 13.5224C20.045 13.1999 19.5425 13.0074 19 13.0074C18.455 13.0074 17.95 13.1999 17.56 13.5249C17.05 13.9399 16.7225 14.5749 16.7225 15.2849C16.7225 15.9924 17.05 16.6299 17.56 17.0449Z" fill="black"/>
</svg>
